<mxfile host="Electron" modified="2024-11-10T03:52:35.948Z" agent="5.0 (Windows NT 10.0; Win64; x64) AppleWebKit/537.36 (KHTML, like Gecko) draw.io/20.8.16 Chrome/106.0.5249.199 Electron/21.4.0 Safari/537.36" etag="N4mzZNUbqJt1rrYSZx3n" compressed="false" version="20.8.16" type="device">
  <diagram id="K6tpQGdSyWYsWiGt794e" name="v1">
    <mxGraphModel dx="1780" dy="796" grid="1" gridSize="10" guides="1" tooltips="1" connect="1" arrows="1" fold="1" page="1" pageScale="1" pageWidth="827" pageHeight="1169" math="0" shadow="0">
      <root>
        <mxCell id="0" />
        <mxCell id="1" parent="0" />
        <object label="%id%&lt;br&gt;%blockId%" placeholders="1" type="section" blockId="B29" id="S29">
          <mxCell style="endArrow=open;html=1;rounded=0;startArrow=oval;startFill=1;endFill=0;fontSize=8;fontColor=#4472C4;strokeColor=#4472C4;" parent="1" source="C29" target="J30" edge="1">
            <mxGeometry width="100" height="100" relative="1" as="geometry">
              <mxPoint x="150" y="160" as="sourcePoint" />
              <mxPoint x="289.9999999999877" y="160" as="targetPoint" />
              <Array as="points">
                <mxPoint x="80" y="200" />
              </Array>
            </mxGeometry>
          </mxCell>
        </object>
        <object label="%id%&lt;br&gt;%blockId%" placeholders="1" type="section" blockId="B37" id="s101c">
          <mxCell style="endArrow=open;html=1;rounded=0;startArrow=oval;startFill=1;endFill=0;fontSize=8;fontColor=#4472C4;strokeColor=#4472C4;" parent="1" source="j101" target="j102" edge="1">
            <mxGeometry width="100" height="100" relative="1" as="geometry">
              <mxPoint x="430" y="230" as="sourcePoint" />
              <mxPoint x="569.9999999999877" y="230" as="targetPoint" />
            </mxGeometry>
          </mxCell>
        </object>
        <object label="%id%&lt;br&gt;%blockId%" placeholders="1" type="section" blockId="B37" id="s101s">
          <mxCell style="endArrow=open;html=1;rounded=0;startArrow=oval;startFill=1;endFill=0;fontSize=8;fontColor=#4472C4;strokeColor=#4472C4;" parent="1" source="j101" target="j103" edge="1">
            <mxGeometry width="100" height="100" relative="1" as="geometry">
              <mxPoint x="654.4343569378241" y="218.9630618956012" as="sourcePoint" />
              <mxPoint x="685.5278640449285" y="281.05572808985676" as="targetPoint" />
            </mxGeometry>
          </mxCell>
        </object>
        <object label="%id%&lt;br&gt;%blockId%" placeholders="1" type="section" blockId="B37" id="S37">
          <mxCell style="endArrow=open;html=1;rounded=0;startArrow=oval;startFill=1;endFill=0;fontSize=8;fontColor=#4472C4;strokeColor=#4472C4;" parent="1" source="C37" target="j101" edge="1">
            <mxGeometry width="100" height="100" relative="1" as="geometry">
              <mxPoint x="540" y="170" as="sourcePoint" />
              <mxPoint x="665.5278640449285" y="281.05572808985676" as="targetPoint" />
              <mxPoint as="offset" />
            </mxGeometry>
          </mxCell>
        </object>
        <object label="%id%&lt;br&gt;%blockId%" placeholders="1" type="section" blockId="B30S" id="S50C">
          <mxCell style="endArrow=open;html=1;rounded=0;startArrow=oval;startFill=1;endFill=0;fontSize=8;fontColor=#4472C4;strokeColor=#4472C4;" parent="1" source="J50" target="j100" edge="1">
            <mxGeometry width="100" height="100" relative="1" as="geometry">
              <mxPoint x="614.4506740642357" y="218.95497070755857" as="sourcePoint" />
              <mxPoint x="645.508762605811" y="281.0653043328363" as="targetPoint" />
            </mxGeometry>
          </mxCell>
        </object>
        <object label="%id%&lt;br&gt;%blockId%" placeholders="1" type="section" blockId="B50S" id="S50S">
          <mxCell style="endArrow=open;html=1;rounded=0;startArrow=oval;startFill=1;endFill=0;fontSize=8;fontColor=#4472C4;strokeColor=#4472C4;" parent="1" source="J50" target="C51" edge="1">
            <mxGeometry width="100" height="100" relative="1" as="geometry">
              <mxPoint x="644.4506740642357" y="228.95497070755857" as="sourcePoint" />
              <mxPoint x="520" y="300" as="targetPoint" />
              <mxPoint as="offset" />
            </mxGeometry>
          </mxCell>
        </object>
        <object label="%id%&lt;br&gt;%blockId%" placeholders="1" type="section" blockId="B30S" id="S30S">
          <mxCell style="endArrow=open;html=1;rounded=0;startArrow=oval;startFill=1;endFill=0;fontSize=8;fontColor=#4472C4;strokeColor=#4472C4;" parent="1" source="J30" target="j100" edge="1">
            <mxGeometry width="100" height="100" relative="1" as="geometry">
              <mxPoint x="414.47213595499966" y="281.0557280900007" as="sourcePoint" />
              <mxPoint x="445.52786404500034" y="218.9442719099991" as="targetPoint" />
            </mxGeometry>
          </mxCell>
        </object>
        <object label="%id%&lt;br&gt;%blockId%" placeholders="1" type="section" blockId="B26" id="s106">
          <mxCell style="endArrow=open;html=1;rounded=0;startArrow=oval;startFill=1;endFill=0;fontSize=8;fontColor=#4472C4;strokeColor=#4472C4;" parent="1" source="j106" target="C47" edge="1">
            <mxGeometry width="100" height="100" relative="1" as="geometry">
              <mxPoint x="210" y="360" as="sourcePoint" />
              <mxPoint x="140" y="360" as="targetPoint" />
            </mxGeometry>
          </mxCell>
        </object>
        <object label="%id%&lt;br&gt;%blockId%" placeholders="1" type="section" blockId="B25" id="s105">
          <mxCell style="endArrow=open;html=1;rounded=0;startArrow=oval;startFill=1;endFill=0;fontSize=8;fontColor=#4472C4;strokeColor=#4472C4;" parent="1" source="j105" target="C46" edge="1">
            <mxGeometry width="100" height="100" relative="1" as="geometry">
              <mxPoint x="410" y="360" as="sourcePoint" />
              <mxPoint x="319.9999999999877" y="170" as="targetPoint" />
            </mxGeometry>
          </mxCell>
        </object>
        <object label="%id%&lt;br&gt;%blockId%" placeholders="1" type="section" blockId="B25" id="s104c">
          <mxCell style="endArrow=open;html=1;rounded=0;startArrow=oval;startFill=1;endFill=0;fontSize=8;fontColor=#4472C4;strokeColor=#4472C4;" parent="1" source="j104" target="J26" edge="1">
            <mxGeometry width="100" height="100" relative="1" as="geometry">
              <mxPoint x="170" y="180" as="sourcePoint" />
              <mxPoint x="309.9999999999877" y="180" as="targetPoint" />
              <mxPoint as="offset" />
            </mxGeometry>
          </mxCell>
        </object>
        <object label="%id%&lt;br&gt;%blockId%" placeholders="1" type="section" blockId="B26" id="S26C">
          <mxCell style="endArrow=open;html=1;rounded=0;startArrow=oval;startFill=1;endFill=0;fontSize=8;fontColor=#4472C4;strokeColor=#4472C4;" parent="1" source="J26" target="j106" edge="1">
            <mxGeometry x="-0.0016" width="100" height="100" relative="1" as="geometry">
              <mxPoint x="480" y="450" as="sourcePoint" />
              <mxPoint x="330" y="390" as="targetPoint" />
              <mxPoint as="offset" />
            </mxGeometry>
          </mxCell>
        </object>
        <object label="%id%&lt;br&gt;%blockId%" placeholders="1" type="section" blockId="B25" id="s104s">
          <mxCell style="endArrow=open;html=1;rounded=0;startArrow=oval;startFill=1;endFill=0;fontSize=8;fontColor=#4472C4;strokeColor=#4472C4;" parent="1" source="j104" target="j105" edge="1">
            <mxGeometry width="100" height="100" relative="1" as="geometry">
              <mxPoint x="325.544684457064" y="441.04733763542083" as="sourcePoint" />
              <mxPoint x="294.47213595499966" y="378.9442719099992" as="targetPoint" />
            </mxGeometry>
          </mxCell>
        </object>
        <object label="%id%&lt;br&gt;%blockId%" placeholders="1" type="section" blockId="B26" id="S46">
          <mxCell style="endArrow=open;html=1;rounded=0;startArrow=oval;startFill=1;endFill=0;fontSize=8;fontColor=#4472C4;strokeColor=#4472C4;" parent="1" source="C46" target="j106" edge="1">
            <mxGeometry width="100" height="100" relative="1" as="geometry">
              <mxPoint x="460" y="340" as="sourcePoint" />
              <mxPoint x="410" y="310" as="targetPoint" />
            </mxGeometry>
          </mxCell>
        </object>
        <object label="%id%&lt;br&gt;%blockId%" placeholders="1" type="section" blockId="B25" id="S25">
          <mxCell style="endArrow=open;html=1;rounded=0;startArrow=oval;startFill=1;endFill=0;fontSize=8;fontColor=#4472C4;strokeColor=#4472C4;" parent="1" source="C25" target="j104" edge="1">
            <mxGeometry x="0.0014" width="100" height="100" relative="1" as="geometry">
              <mxPoint x="515.5278640450003" y="511.0557280900009" as="sourcePoint" />
              <mxPoint x="424.47213595499966" y="388.9442719099993" as="targetPoint" />
              <Array as="points">
                <mxPoint x="520" y="520" />
              </Array>
              <mxPoint as="offset" />
            </mxGeometry>
          </mxCell>
        </object>
        <object label="%id%&lt;br&gt;%blockId%" placeholders="1" type="section" blockId="B27" id="S27">
          <mxCell style="endArrow=open;html=1;rounded=0;startArrow=oval;startFill=1;endFill=0;fontSize=8;fontColor=#4472C4;strokeColor=#4472C4;" parent="1" source="C27" target="C28" edge="1">
            <mxGeometry x="-0.0016" width="100" height="100" relative="1" as="geometry">
              <mxPoint x="160" y="440" as="sourcePoint" />
              <mxPoint x="100" y="440" as="targetPoint" />
              <mxPoint as="offset" />
              <Array as="points">
                <mxPoint x="80" y="440" />
              </Array>
            </mxGeometry>
          </mxCell>
        </object>
        <object label="%id%&lt;br&gt;%blockId%" placeholders="1" type="section" blockId="B30C" id="S30C">
          <mxCell style="endArrow=open;html=1;rounded=0;startArrow=oval;startFill=1;endFill=0;fontSize=8;fontColor=#4472C4;strokeColor=#4472C4;" parent="1" source="J30" target="C60" edge="1">
            <mxGeometry width="100" height="100" relative="1" as="geometry">
              <mxPoint x="340" y="210" as="sourcePoint" />
              <mxPoint x="440" y="210" as="targetPoint" />
              <Array as="points">
                <mxPoint x="360" y="120" />
              </Array>
            </mxGeometry>
          </mxCell>
        </object>
        <object label="%id%&lt;br&gt;%blockId%" placeholders="1" type="section" blockId="B37" id="S60">
          <mxCell style="endArrow=open;html=1;rounded=0;startArrow=oval;startFill=1;endFill=0;fontSize=8;fontColor=#4472C4;strokeColor=#4472C4;" parent="1" source="C60" target="j103" edge="1">
            <mxGeometry width="100" height="100" relative="1" as="geometry">
              <mxPoint x="350" y="220" as="sourcePoint" />
              <mxPoint x="718" y="160" as="targetPoint" />
              <Array as="points">
                <mxPoint x="680" y="120" />
              </Array>
            </mxGeometry>
          </mxCell>
        </object>
        <object label="%id%&lt;br&gt;%blockId%" placeholders="1" type="section" blockId="B30S" id="s100">
          <mxCell style="endArrow=open;html=1;rounded=0;startArrow=oval;startFill=1;endFill=0;fontSize=8;fontColor=#4472C4;strokeColor=#4472C4;" parent="1" source="j100" target="C37" edge="1">
            <mxGeometry width="100" height="100" relative="1" as="geometry">
              <mxPoint x="460" y="210" as="sourcePoint" />
              <mxPoint x="640" y="210" as="targetPoint" />
            </mxGeometry>
          </mxCell>
        </object>
        <object label="%id%&lt;br&gt;%blockId%" placeholders="1" type="section" blockId="B37" id="S51">
          <mxCell style="endArrow=open;html=1;rounded=0;startArrow=oval;startFill=1;endFill=0;fontSize=8;fontColor=#4472C4;strokeColor=#4472C4;" parent="1" source="C51" target="j102" edge="1">
            <mxGeometry width="100" height="100" relative="1" as="geometry">
              <mxPoint x="419.863939238335" y="291.64398987305583" as="sourcePoint" />
              <mxPoint x="530" y="310" as="targetPoint" />
              <mxPoint as="offset" />
            </mxGeometry>
          </mxCell>
        </object>
        <object label="%id%&lt;br&gt;%blockId%" placeholders="1" type="section" blockId="B37" id="s103">
          <mxCell style="endArrow=open;html=1;rounded=0;startArrow=oval;startFill=1;endFill=0;fontSize=8;fontColor=#4472C4;strokeColor=#4472C4;" parent="1" source="j103" target="C20" edge="1">
            <mxGeometry width="100" height="100" relative="1" as="geometry">
              <mxPoint x="764" y="210" as="sourcePoint" />
              <mxPoint x="850" y="240" as="targetPoint" />
            </mxGeometry>
          </mxCell>
        </object>
        <object label="%id%&lt;br&gt;%blockId%" placeholders="1" type="section" blockId="B37" id="s102">
          <mxCell style="endArrow=open;html=1;rounded=0;startArrow=oval;startFill=1;endFill=0;fontSize=8;fontColor=#4472C4;strokeColor=#4472C4;" parent="1" source="j102" target="C40" edge="1">
            <mxGeometry width="100" height="100" relative="1" as="geometry">
              <mxPoint x="779.999999999982" y="210" as="sourcePoint" />
              <mxPoint x="800.000000000018" y="210" as="targetPoint" />
              <mxPoint as="offset" />
            </mxGeometry>
          </mxCell>
        </object>
        <object label="%id%&lt;br&gt;%blockId%" placeholders="1" type="section" blockId="B40" id="S40">
          <mxCell style="endArrow=open;html=1;rounded=0;startArrow=oval;startFill=1;endFill=0;fontSize=8;fontColor=#4472C4;strokeColor=#4472C4;" parent="1" source="C40" target="C41" edge="1">
            <mxGeometry x="0.0069" width="100" height="100" relative="1" as="geometry">
              <mxPoint x="740" y="290" as="sourcePoint" />
              <mxPoint x="900" y="360" as="targetPoint" />
              <mxPoint as="offset" />
            </mxGeometry>
          </mxCell>
        </object>
        <object label="%id%&lt;br&gt;%blockId%" placeholders="1" type="section" blockId="B41" id="S41">
          <mxCell style="endArrow=open;html=1;rounded=0;startArrow=oval;startFill=1;endFill=0;fontSize=8;fontColor=#4472C4;strokeColor=#4472C4;" parent="1" source="C41" target="C42" edge="1">
            <mxGeometry x="0.0069" width="100" height="100" relative="1" as="geometry">
              <mxPoint x="820.0000000000002" y="290" as="sourcePoint" />
              <mxPoint x="880" y="340" as="targetPoint" />
              <mxPoint as="offset" />
            </mxGeometry>
          </mxCell>
        </object>
        <object label="%id%&lt;br&gt;%blockId%" placeholders="1" type="section" blockId="B42" id="S42">
          <mxCell style="endArrow=open;html=1;rounded=0;startArrow=oval;startFill=1;endFill=0;fontSize=8;fontColor=#4472C4;strokeColor=#4472C4;" parent="1" source="C42" target="C43" edge="1">
            <mxGeometry x="0.0069" width="100" height="100" relative="1" as="geometry">
              <mxPoint x="930.0000000000002" y="300" as="sourcePoint" />
              <mxPoint x="930.0000000000002" y="360" as="targetPoint" />
              <mxPoint as="offset" />
            </mxGeometry>
          </mxCell>
        </object>
        <object label="%id%&lt;br&gt;%blockId%" placeholders="1" type="section" blockId="B43" id="S43">
          <mxCell style="endArrow=open;html=1;rounded=0;startArrow=oval;startFill=1;endFill=0;fontSize=8;fontColor=#4472C4;strokeColor=#4472C4;" parent="1" source="C43" target="C44" edge="1">
            <mxGeometry x="0.0069" width="100" height="100" relative="1" as="geometry">
              <mxPoint x="830.033303959425" y="350.81545694877434" as="sourcePoint" />
              <mxPoint x="810.0000000000002" y="360" as="targetPoint" />
              <mxPoint as="offset" />
            </mxGeometry>
          </mxCell>
        </object>
        <object label="%id%&lt;br&gt;%blockId%" placeholders="1" type="section" blockId="B20" id="S20">
          <mxCell style="endArrow=open;html=1;rounded=0;startArrow=oval;startFill=1;endFill=0;fontSize=8;fontColor=#4472C4;strokeColor=#4472C4;" parent="1" source="C20" target="C21" edge="1">
            <mxGeometry x="0.0085" width="100" height="100" relative="1" as="geometry">
              <mxPoint x="820" y="290" as="sourcePoint" />
              <mxPoint x="930" y="200" as="targetPoint" />
              <mxPoint as="offset" />
              <Array as="points">
                <mxPoint x="1000" y="200" />
              </Array>
            </mxGeometry>
          </mxCell>
        </object>
        <object label="%id%&lt;br&gt;%blockId%" placeholders="1" type="section" blockId="B21" id="S21">
          <mxCell style="endArrow=open;html=1;rounded=0;startArrow=oval;startFill=1;endFill=0;fontSize=8;fontColor=#4472C4;strokeColor=#4472C4;" parent="1" source="C21" target="C22" edge="1">
            <mxGeometry width="100" height="100" relative="1" as="geometry">
              <mxPoint x="864" y="210" as="sourcePoint" />
              <mxPoint x="1014" y="240" as="targetPoint" />
            </mxGeometry>
          </mxCell>
        </object>
        <object label="%id%&lt;br&gt;%blockId%" placeholders="1" type="section" blockId="B22" id="S22">
          <mxCell style="endArrow=open;html=1;rounded=0;startArrow=oval;startFill=1;endFill=0;fontSize=8;fontColor=#4472C4;strokeColor=#4472C4;" parent="1" source="C22" target="C23" edge="1">
            <mxGeometry width="100" height="100" relative="1" as="geometry">
              <mxPoint x="970" y="260" as="sourcePoint" />
              <mxPoint x="970" y="400" as="targetPoint" />
              <Array as="points">
                <mxPoint x="1000" y="440" />
              </Array>
            </mxGeometry>
          </mxCell>
        </object>
        <object label="%id%&lt;br&gt;%blockId%" placeholders="1" type="section" blockId="B23" id="S23">
          <mxCell style="endArrow=open;html=1;rounded=0;startArrow=oval;startFill=1;endFill=0;fontSize=8;fontColor=#4472C4;strokeColor=#4472C4;" parent="1" source="C23" target="C24" edge="1">
            <mxGeometry width="100" height="100" relative="1" as="geometry">
              <mxPoint x="970" y="420" as="sourcePoint" />
              <mxPoint x="860" y="450" as="targetPoint" />
              <Array as="points" />
            </mxGeometry>
          </mxCell>
        </object>
        <object label="%id%&lt;br&gt;%blockId%" placeholders="1" type="section" blockId="B44" id="S44">
          <mxCell style="endArrow=open;html=1;rounded=0;startArrow=oval;startFill=1;endFill=0;fontSize=8;fontColor=#4472C4;strokeColor=#4472C4;" parent="1" source="C44" target="C45" edge="1">
            <mxGeometry width="100" height="100" relative="1" as="geometry">
              <mxPoint x="550" y="370" as="sourcePoint" />
              <mxPoint x="420" y="370" as="targetPoint" />
            </mxGeometry>
          </mxCell>
        </object>
        <object label="%id%&lt;br&gt;%blockId%" placeholders="1" type="section" blockId="B47" id="S47">
          <mxCell style="endArrow=open;html=1;rounded=0;startArrow=oval;startFill=1;endFill=0;fontSize=8;fontColor=#4472C4;strokeColor=#4472C4;" parent="1" source="C47" target="C48" edge="1">
            <mxGeometry width="100" height="100" relative="1" as="geometry">
              <mxPoint x="360" y="369.9999999999999" as="sourcePoint" />
              <mxPoint x="260" y="369.9999999999999" as="targetPoint" />
            </mxGeometry>
          </mxCell>
        </object>
        <object label="%id%&lt;br&gt;%blockId%" placeholders="1" type="section" blockId="B48" id="S48">
          <mxCell style="endArrow=open;html=1;rounded=0;startArrow=oval;startFill=1;endFill=0;fontSize=8;fontColor=#4472C4;strokeColor=#4472C4;" parent="1" source="C48" target="C49" edge="1">
            <mxGeometry width="100" height="100" relative="1" as="geometry">
              <mxPoint x="239.99999999999181" y="370" as="sourcePoint" />
              <mxPoint x="180" y="370" as="targetPoint" />
            </mxGeometry>
          </mxCell>
        </object>
        <object label="%id%&lt;br&gt;%blockId%" placeholders="1" type="section" blockId="B49" id="S49">
          <mxCell style="endArrow=open;html=1;rounded=0;startArrow=oval;startFill=1;endFill=0;fontSize=8;fontColor=#4472C4;strokeColor=#4472C4;" parent="1" source="C49" target="J50" edge="1">
            <mxGeometry width="100" height="100" relative="1" as="geometry">
              <mxPoint x="130" y="360" as="sourcePoint" />
              <mxPoint x="130" y="300" as="targetPoint" />
            </mxGeometry>
          </mxCell>
        </object>
        <object label="%id%&lt;br&gt;%blockId%" placeholders="1" type="section" blockId="B28" id="S28">
          <mxCell style="endArrow=open;html=1;rounded=0;startArrow=oval;startFill=1;endFill=0;fontSize=8;fontColor=#4472C4;strokeColor=#4472C4;" parent="1" source="C28" target="C29" edge="1">
            <mxGeometry width="100" height="100" relative="1" as="geometry">
              <mxPoint x="360.0000000000002" y="450" as="sourcePoint" />
              <mxPoint x="110" y="420" as="targetPoint" />
              <mxPoint as="offset" />
            </mxGeometry>
          </mxCell>
        </object>
        <object label="%id%&lt;br&gt;%blockId%" placeholders="1" type="section" blockId="B26" id="S26">
          <mxCell style="endArrow=open;html=1;rounded=0;startArrow=oval;startFill=1;endFill=0;fontSize=8;fontColor=#4472C4;strokeColor=#4472C4;" parent="1" source="J26" target="C27" edge="1">
            <mxGeometry width="100" height="100" relative="1" as="geometry">
              <mxPoint x="240" y="370" as="sourcePoint" />
              <mxPoint x="180" y="370" as="targetPoint" />
            </mxGeometry>
          </mxCell>
        </object>
        <object label="%id%&lt;br&gt;%blockId%" placeholders="1" type="section" blockId="B24" id="S24">
          <mxCell style="endArrow=open;html=1;rounded=0;startArrow=oval;startFill=1;endFill=0;fontSize=8;fontColor=#4472C4;strokeColor=#4472C4;" parent="1" source="C24" target="C25" edge="1">
            <mxGeometry width="100" height="100" relative="1" as="geometry">
              <mxPoint x="710" y="500" as="sourcePoint" />
              <mxPoint x="459.8220605963297" y="451.87806433380376" as="targetPoint" />
              <Array as="points">
                <mxPoint x="680" y="520" />
              </Array>
            </mxGeometry>
          </mxCell>
        </object>
        <object label="%id%&lt;br&gt;%blockId%" placeholders="1" type="section" blockId="B25" id="S45">
          <mxCell style="endArrow=open;html=1;rounded=0;startArrow=oval;startFill=1;endFill=0;fontSize=8;fontColor=#4472C4;strokeColor=#4472C4;" parent="1" source="C45" target="j105" edge="1">
            <mxGeometry width="100" height="100" relative="1" as="geometry">
              <mxPoint x="485.55192385817327" y="521.0437385792944" as="sourcePoint" />
              <mxPoint x="510" y="390" as="targetPoint" />
            </mxGeometry>
          </mxCell>
        </object>
        <object label="%id%" placeholders="1" type="junction" id="C29">
          <mxCell style="ellipse;whiteSpace=wrap;html=1;aspect=fixed;fontSize=8;fontColor=#A5A5A5;strokeColor=#A5A5A5;" parent="1" vertex="1">
            <mxGeometry x="70" y="230" width="20" height="20" as="geometry" />
          </mxCell>
        </object>
        <object label="%id%" placeholders="1" type="junction" id="j101">
          <mxCell style="ellipse;whiteSpace=wrap;html=1;aspect=fixed;fontSize=8;fontColor=#BF9000;strokeColor=#BF9000;" parent="1" vertex="1">
            <mxGeometry x="630" y="190" width="20" height="20" as="geometry" />
          </mxCell>
        </object>
        <object label="%id%" placeholders="1" type="junction" id="j103">
          <mxCell style="ellipse;whiteSpace=wrap;html=1;aspect=fixed;fontSize=8;fontColor=#BF9000;strokeColor=#BF9000;" parent="1" vertex="1">
            <mxGeometry x="710" y="190" width="20" height="20" as="geometry" />
          </mxCell>
        </object>
        <object label="%id%" placeholders="1" type="junction" id="j100">
          <mxCell style="ellipse;whiteSpace=wrap;html=1;aspect=fixed;fontSize=8;fontColor=#BF9000;strokeColor=#BF9000;" parent="1" vertex="1">
            <mxGeometry x="430" y="190" width="20" height="20" as="geometry" />
          </mxCell>
        </object>
        <object label="%id%" placeholders="1" type="junction" id="J50">
          <mxCell style="ellipse;whiteSpace=wrap;html=1;aspect=fixed;fontSize=8;fontColor=#BF9000;strokeColor=#BF9000;" parent="1" vertex="1">
            <mxGeometry x="390" y="270" width="20" height="20" as="geometry" />
          </mxCell>
        </object>
        <object label="%id%" placeholders="1" type="junction" id="J30">
          <mxCell style="ellipse;whiteSpace=wrap;html=1;aspect=fixed;fontSize=8;fontColor=#BF9000;strokeColor=#BF9000;" parent="1" vertex="1">
            <mxGeometry x="310" y="190" width="20" height="20" as="geometry" />
          </mxCell>
        </object>
        <object label="%id%" placeholders="1" type="junction" id="j105">
          <mxCell style="ellipse;whiteSpace=wrap;html=1;aspect=fixed;fontSize=8;fontColor=#BF9000;strokeColor=#BF9000;" parent="1" vertex="1">
            <mxGeometry x="430" y="350" width="20" height="20" as="geometry" />
          </mxCell>
        </object>
        <object label="%id%" placeholders="1" type="junction" id="j104">
          <mxCell style="ellipse;whiteSpace=wrap;html=1;aspect=fixed;fontSize=8;fontColor=#BF9000;strokeColor=#BF9000;" parent="1" vertex="1">
            <mxGeometry x="470" y="430" width="20" height="20" as="geometry" />
          </mxCell>
        </object>
        <object label="%id%" placeholders="1" type="junction" id="J26">
          <mxCell style="ellipse;whiteSpace=wrap;html=1;aspect=fixed;fontSize=8;fontColor=#BF9000;strokeColor=#BF9000;" parent="1" vertex="1">
            <mxGeometry x="350" y="430" width="20" height="20" as="geometry" />
          </mxCell>
        </object>
        <object label="%id%" placeholders="1" type="junction" id="j106">
          <mxCell style="ellipse;whiteSpace=wrap;html=1;aspect=fixed;fontSize=8;fontColor=#BF9000;strokeColor=#BF9000;" parent="1" vertex="1">
            <mxGeometry x="310" y="350" width="20" height="20" as="geometry" />
          </mxCell>
        </object>
        <object label="%id%" placeholders="1" type="junction" id="C60">
          <mxCell style="ellipse;whiteSpace=wrap;html=1;aspect=fixed;fontSize=8;fontColor=#A5A5A5;strokeColor=#A5A5A5;" parent="1" vertex="1">
            <mxGeometry x="510" y="110" width="20" height="20" as="geometry" />
          </mxCell>
        </object>
        <object label="%id%" placeholders="1" type="junction" id="C37">
          <mxCell style="ellipse;whiteSpace=wrap;html=1;aspect=fixed;fontSize=8;fontColor=#A5A5A5;strokeColor=#A5A5A5;" parent="1" vertex="1">
            <mxGeometry x="510" y="190" width="20" height="20" as="geometry" />
          </mxCell>
        </object>
        <object label="%id%" placeholders="1" type="junction" id="C51">
          <mxCell style="ellipse;whiteSpace=wrap;html=1;aspect=fixed;fontSize=8;fontColor=#A5A5A5;strokeColor=#A5A5A5;" parent="1" vertex="1">
            <mxGeometry x="510" y="270" width="20" height="20" as="geometry" />
          </mxCell>
        </object>
        <object label="%id%" placeholders="1" type="junction" id="j102">
          <mxCell style="ellipse;whiteSpace=wrap;html=1;aspect=fixed;fontSize=8;fontColor=#BF9000;strokeColor=#BF9000;" parent="1" vertex="1">
            <mxGeometry x="670" y="270" width="20" height="20" as="geometry" />
          </mxCell>
        </object>
        <object label="%id%" placeholders="1" type="junction" id="C40">
          <mxCell style="ellipse;whiteSpace=wrap;html=1;aspect=fixed;fontSize=8;fontColor=#A5A5A5;strokeColor=#A5A5A5;" parent="1" vertex="1">
            <mxGeometry x="790" y="270" width="20" height="20" as="geometry" />
          </mxCell>
        </object>
        <object label="%id%" placeholders="1" type="junction" id="C20">
          <mxCell style="ellipse;whiteSpace=wrap;html=1;aspect=fixed;fontSize=8;fontColor=#A5A5A5;strokeColor=#A5A5A5;" parent="1" vertex="1">
            <mxGeometry x="790" y="190" width="20" height="20" as="geometry" />
          </mxCell>
        </object>
        <object label="%id%" placeholders="1" type="junction" id="C41">
          <mxCell style="ellipse;whiteSpace=wrap;html=1;aspect=fixed;fontSize=8;fontColor=#A5A5A5;strokeColor=#A5A5A5;" parent="1" vertex="1">
            <mxGeometry x="910" y="270" width="20" height="20" as="geometry" />
          </mxCell>
        </object>
        <object label="%id%" placeholders="1" type="junction" id="C42">
          <mxCell style="ellipse;whiteSpace=wrap;html=1;aspect=fixed;fontSize=8;fontColor=#A5A5A5;strokeColor=#A5A5A5;" parent="1" vertex="1">
            <mxGeometry x="910" y="350" width="20" height="20" as="geometry" />
          </mxCell>
        </object>
        <object label="%id%" placeholders="1" type="junction" id="C43">
          <mxCell style="ellipse;whiteSpace=wrap;html=1;aspect=fixed;fontSize=8;fontColor=#A5A5A5;strokeColor=#A5A5A5;" parent="1" vertex="1">
            <mxGeometry x="830" y="350" width="20" height="20" as="geometry" />
          </mxCell>
        </object>
        <object label="%id%" placeholders="1" type="junction" id="C44">
          <mxCell style="ellipse;whiteSpace=wrap;html=1;aspect=fixed;fontSize=8;fontColor=#A5A5A5;strokeColor=#A5A5A5;" parent="1" vertex="1">
            <mxGeometry x="710" y="350" width="20" height="20" as="geometry" />
          </mxCell>
        </object>
        <object label="%id%" placeholders="1" type="junction" id="C21">
          <mxCell style="ellipse;whiteSpace=wrap;html=1;aspect=fixed;fontSize=8;fontColor=#A5A5A5;strokeColor=#A5A5A5;" parent="1" vertex="1">
            <mxGeometry x="990" y="230" width="20" height="20" as="geometry" />
          </mxCell>
        </object>
        <object label="%id%" placeholders="1" type="junction" id="C22">
          <mxCell style="ellipse;whiteSpace=wrap;html=1;aspect=fixed;fontSize=8;fontColor=#A5A5A5;strokeColor=#A5A5A5;" parent="1" vertex="1">
            <mxGeometry x="990" y="390" width="20" height="20" as="geometry" />
          </mxCell>
        </object>
        <object label="%id%" placeholders="1" type="junction" id="C23">
          <mxCell style="ellipse;whiteSpace=wrap;html=1;aspect=fixed;fontSize=8;fontColor=#A5A5A5;strokeColor=#A5A5A5;" parent="1" vertex="1">
            <mxGeometry x="830" y="430" width="20" height="20" as="geometry" />
          </mxCell>
        </object>
        <object label="%id%" placeholders="1" type="junction" id="C24">
          <mxCell style="ellipse;whiteSpace=wrap;html=1;aspect=fixed;fontSize=8;fontColor=#A5A5A5;strokeColor=#A5A5A5;" parent="1" vertex="1">
            <mxGeometry x="710" y="430" width="20" height="20" as="geometry" />
          </mxCell>
        </object>
        <object label="%id%" placeholders="1" type="junction" id="C45">
          <mxCell style="ellipse;whiteSpace=wrap;html=1;aspect=fixed;fontSize=8;fontColor=#A5A5A5;strokeColor=#A5A5A5;" parent="1" vertex="1">
            <mxGeometry x="550" y="350" width="20" height="20" as="geometry" />
          </mxCell>
        </object>
        <object label="%id%" placeholders="1" type="junction" id="C47">
          <mxCell style="ellipse;whiteSpace=wrap;html=1;aspect=fixed;fontSize=8;fontColor=#A5A5A5;strokeColor=#A5A5A5;" parent="1" vertex="1">
            <mxGeometry x="230" y="350" width="20" height="20" as="geometry" />
          </mxCell>
        </object>
        <object label="%id%" placeholders="1" type="junction" id="C48">
          <mxCell style="ellipse;whiteSpace=wrap;html=1;aspect=fixed;fontSize=8;fontColor=#A5A5A5;strokeColor=#A5A5A5;" parent="1" vertex="1">
            <mxGeometry x="150" y="350" width="20" height="20" as="geometry" />
          </mxCell>
        </object>
        <object label="%id%" placeholders="1" type="junction" id="C49">
          <mxCell style="ellipse;whiteSpace=wrap;html=1;aspect=fixed;fontSize=8;fontColor=#A5A5A5;strokeColor=#A5A5A5;" parent="1" vertex="1">
            <mxGeometry x="150" y="270" width="20" height="20" as="geometry" />
          </mxCell>
        </object>
        <object label="%id%" placeholders="1" type="junction" id="C28">
          <mxCell style="ellipse;whiteSpace=wrap;html=1;aspect=fixed;fontSize=8;fontColor=#A5A5A5;strokeColor=#A5A5A5;" parent="1" vertex="1">
            <mxGeometry x="70" y="390" width="20" height="20" as="geometry" />
          </mxCell>
        </object>
        <object label="%id%" placeholders="1" type="junction" id="C27">
          <mxCell style="ellipse;whiteSpace=wrap;html=1;aspect=fixed;fontSize=8;fontColor=#A5A5A5;strokeColor=#A5A5A5;" parent="1" vertex="1">
            <mxGeometry x="230" y="430" width="20" height="20" as="geometry" />
          </mxCell>
        </object>
        <object label="%id%" placeholders="1" type="junction" id="C25">
          <mxCell style="ellipse;whiteSpace=wrap;html=1;aspect=fixed;fontSize=8;fontColor=#A5A5A5;strokeColor=#A5A5A5;" parent="1" vertex="1">
            <mxGeometry x="550" y="510" width="20" height="20" as="geometry" />
          </mxCell>
        </object>
        <object label="%id%" placeholders="1" type="junction" id="C46">
          <mxCell style="ellipse;whiteSpace=wrap;html=1;aspect=fixed;fontSize=8;fontColor=#A5A5A5;strokeColor=#A5A5A5;" parent="1" vertex="1">
            <mxGeometry x="351" y="350" width="20" height="20" as="geometry" />
          </mxCell>
        </object>
      </root>
    </mxGraphModel>
  </diagram>
</mxfile>
